<?xml version="1.0" encoding="UTF-8"?>
<svg version="1.1" xmlns="http://www.w3.org/2000/svg" width="2169" height="1892">
<path d="M0 0 C1.08323547 0.35354553 1.08323547 0.35354553 2.18835449 0.7142334 C64.3777938 21.04770925 124.98712019 47.74801743 181.18847656 81.33105469 C183.92306233 82.95432912 186.67262358 84.54807493 189.4296875 86.1328125 C204.39724495 94.77331706 218.71383493 104.29216266 233 114 C234.21888916 114.82443604 234.21888916 114.82443604 235.46240234 115.66552734 C252.44733696 127.15791629 268.91464916 139.2803901 285 152 C285.97839844 152.7734375 286.95679688 153.546875 287.96484375 154.34375 C290.31904848 156.21818789 292.66273926 158.10448957 295 160 C295.85335938 160.6909375 296.70671875 161.381875 297.5859375 162.09375 C307.50071227 170.16193348 317.28401521 178.3645708 326.74609375 186.9609375 C328.7688269 188.79086247 330.81369435 190.58881728 332.875 192.375 C340.54613153 199.06782933 348.02725016 205.94215444 355.16796875 213.19921875 C356.90741198 214.9089913 358.70085749 216.48787732 360.5625 218.0625 C369.43732705 225.70471218 377.84561615 234.23249914 385.3984375 243.1796875 C387.34037422 245.38686436 389.40738124 247.43537614 391.5 249.5 C394.87100065 252.83120807 398.0451403 256.25111628 401.12890625 259.84765625 C403.33079829 262.38052162 405.60195826 264.84332522 407.875 267.3125 C411.94859909 271.77873514 415.80827703 276.36921379 419.6015625 281.07421875 C421.77236453 283.72231439 423.99294623 286.31146423 426.2421875 288.89233398 C432.34479339 295.90499493 438.044176 303.16033677 443.64453125 310.578125 C445.90469534 313.57043623 448.19349323 316.53681623 450.51171875 319.484375 C451.40141357 320.61697754 451.40141357 320.61697754 452.30908203 321.77246094 C453.41235281 323.17405416 454.51840309 324.57346837 455.62841797 325.96972656 C466.13163018 339.3456397 475.52593562 353.5972645 484.9375 367.75 C485.45880493 368.53303497 485.98010986 369.31606995 486.51721191 370.12283325 C499.08061556 389.00947103 510.95015085 408.18584487 522 428 C522.71639648 429.28414795 522.71639648 429.28414795 523.44726562 430.59423828 C527.02450883 437.03109776 530.53025365 443.5046265 534 450 C534.86431641 451.61575928 534.86431641 451.61575928 535.74609375 453.26416016 C557.74946633 494.59146236 575.7584067 537.75356799 591 582 C591.24020874 582.69657715 591.48041748 583.3931543 591.72790527 584.11083984 C618.75478289 662.73280007 634.06426397 745.07087624 639 828 C639.0483902 828.80357941 639.0967804 829.60715881 639.14663696 830.43508911 C640.12643865 847.30283413 640.20188854 864.1714257 640.1875 881.0625 C640.18723312 881.76643513 640.18696625 882.47037025 640.18669128 883.19563675 C640.17593305 905.84970676 639.87234579 928.41296151 638 951 C637.93683594 951.77857361 637.87367188 952.55714722 637.80859375 953.35931396 C630.76778853 1039.69761944 612.55674527 1124.37203245 515.71875 1346.10205078 C514.0389799 1348.93427678 512.37623435 1351.77577882 510.71875 1354.62109375 C498.40001225 1375.7261409 485.1502563 1396.07788119 471 1416 C470.4023584 1416.84143555 469.8047168 1417.68287109 469.18896484 1418.54980469 C462.3221663 1428.18991872 455.29607835 1437.68044509 448 1447 C447.08459343 1448.17444644 446.16923018 1449.34892665 445.25390625 1450.5234375 C433.97241169 1464.96915813 422.37212939 1479.16738945 410.046875 1492.73828125 C408.1749031 1494.80673875 406.3313661 1496.89560914 404.5 1499 C400.3845564 1503.71405358 396.21872018 1508.37801981 392 1513 C391.51660156 1513.52996582 391.03320312 1514.05993164 390.53515625 1514.60595703 C381.94305941 1523.98816253 373.04691167 1533.05820986 364.0625 1542.0625 C363.52447754 1542.60311066 362.98645508 1543.14372131 362.43212891 1543.70071411 C357.04724039 1549.10604039 351.64756864 1554.440015 345.84399414 1559.40112305 C342.52230653 1562.28126765 339.37168537 1565.34479942 336.1875 1568.375 C330.78568515 1573.48096238 325.31128023 1578.33733848 319.49609375 1582.96875 C316.97276669 1585.02216169 314.58067727 1587.17188057 312.1875 1589.375 C307.81299174 1593.35683587 303.25470925 1597.01742083 298.58349609 1600.63891602 C294.76699332 1603.60034698 291.00808737 1606.61928285 287.28076172 1609.69213867 C216.38777729 1668.05442318 132.85021358 1713.36842214 -219 1806 C-219.73510803 1806.05220703 -220.47021606 1806.10441406 -221.2276001 1806.15820312 C-311.74077426 1812.50742635 -403.06414223 1805.45966037 -740.33691406 1689.53662109 C-742.96163325 1688.02213791 -745.59891846 1686.53261389 -748.2421875 1685.05078125 C-775.92525783 1669.49855297 -802.62313588 1652.03816901 -828.24755859 1633.28125 C-830.32284782 1631.76395857 -832.40603492 1630.25772873 -834.48828125 1628.75 C-844.34744037 1621.57943118 -853.92234562 1614.14555581 -863.31933594 1606.38085938 C-865.5868871 1604.51780455 -867.88581347 1602.69562664 -870.1875 1600.875 C-874.57455102 1597.37860866 -878.85480293 1593.76506956 -883.12280273 1590.12524414 C-886.45154395 1587.29087525 -889.82754362 1584.5338462 -893.25 1581.8125 C-899.63472257 1576.62083508 -905.54223388 1570.93254057 -911.49609375 1565.2578125 C-914.75803031 1562.15024364 -918.07886962 1559.11771036 -921.421875 1556.09765625 C-929.01014494 1549.19415964 -936.23185964 1541.91832679 -943.47436523 1534.65600586 C-945.82227056 1532.302707 -948.17551968 1529.9548461 -950.52929688 1527.60742188 C-952.04719597 1526.08886242 -953.56478506 1524.56999304 -955.08203125 1523.05078125 C-955.77383987 1522.36099686 -956.4656485 1521.67121246 -957.17842102 1520.96052551 C-961.09407673 1517.02621005 -964.8362455 1512.99280373 -968.45491028 1508.78320312 C-970.85365721 1506.01478588 -973.36921144 1503.3586259 -975.875 1500.6875 C-980.40901694 1495.8189425 -984.68492781 1490.80667836 -988.8515625 1485.6171875 C-991.01511772 1482.98158387 -993.2638956 1480.45576625 -995.5625 1477.9375 C-999.9367307 1473.12509075 -1003.99077664 1468.11800125 -1008 1463 C-1008.78632812 1462.00871094 -1009.57265625 1461.01742188 -1010.3828125 1459.99609375 C-1044.01252231 1417.5535669 -1074.10760558 1372.57616253 -1100 1325 C-1100.82322754 1323.49687256 -1100.82322754 1323.49687256 -1101.66308594 1321.96337891 C-1121.43617823 1285.80579324 -1138.46773017 1248.57219948 -1153 1210 C-1153.25394531 1209.32666626 -1153.50789063 1208.65333252 -1153.76953125 1207.95959473 C-1182.90198213 1130.54961404 -1201.45157887 1049.46626154 -1212.203125 904.0078125 C-1212.21015156 902.34147111 -1212.21723834 900.67512997 -1212.22438049 899.00878906 C-1212.24376519 893.71418871 -1212.24881496 888.41963227 -1212.25 883.125 C-1212.25066278 881.76980381 -1212.25066278 881.76980381 -1212.25133896 880.38722992 C-1212.25857522 852.15352642 -1211.84244799 824.11344796 -1209 796 C-1208.82664124 794.23242373 -1208.65330181 792.46484556 -1208.47998047 790.69726562 C-1204.23909925 748.12886848 -1197.87933941 705.1876506 -1186.8671875 663.796875 C-1186.36445312 661.89023071 -1186.36445312 661.89023071 -1185.8515625 659.94506836 C-1185.22629177 657.61921757 -1184.57977014 655.29891221 -1183.90625 652.98657227 C-1181.89870896 645.62347807 -1182.15067422 640.35017385 -1184 633 C-1184.36707656 631.15957762 -1184.72388282 629.31707655 -1185.0703125 627.47265625 C-1185.60209955 624.74084647 -1186.13550014 622.0094408 -1186.67578125 619.27929688 C-1186.84722656 618.39435547 -1187.01867188 617.50941406 -1187.1953125 616.59765625 C-1187.35016113 615.80883057 -1187.50500977 615.02000488 -1187.66455078 614.20727539 C-1188 612 -1188 612 -1188 608 C-1188.58628174 608.01377686 -1189.17256348 608.02755371 -1189.77661133 608.04174805 C-1237.52152863 608.66363366 -1287.51558174 590.8615336 -1323 559 C-1323.66386719 558.41992188 -1324.32773438 557.83984375 -1325.01171875 557.2421875 C-1342.6142279 540.91165453 -1351.74779678 517.35179127 -1354 494 C-1355.17175781 493.97873047 -1355.17175781 493.97873047 -1356.3671875 493.95703125 C-1394.60601552 492.38148934 -1450.12113606 479.82667535 -1477.1953125 450.6328125 C-1491.64132384 433.52148541 -1493.61312744 413.62179742 -1492 392 C-1490.85662918 382.47036681 -1488.81232203 373.80268573 -1485 365 C-1456.64583959 364.96783807 -1428.29167632 364.94852775 -1399.9375 364.9375 C-1398.31234726 364.93684855 -1398.31234726 364.93684855 -1396.65436316 364.93618393 C-1317.12248619 364.90519738 -1237.5933647 365.13260267 -1158.0625 365.5 C-1156.76699392 365.50597372 -1155.47148784 365.51194743 -1154.136724 365.51810217 C-1121.0911089 365.67063842 -1088.04553439 365.83088869 -1055 366 C-1054.53923065 364.8190123 -1054.53923065 364.8190123 -1054.06915283 363.61416626 C-1053.11460603 361.28022113 -1052.12681536 359.50029635 -1050.671875 357.4609375 C-1049.97747314 356.48108887 -1049.97747314 356.48108887 -1049.26904297 355.48144531 C-1048.5171167 354.43875488 -1048.5171167 354.43875488 -1047.75 353.375 C-1047.22422363 352.63862305 -1046.69844727 351.90224609 -1046.15673828 351.14355469 C-1036.67898158 337.91528647 -1027.00537189 324.83403114 -1017 312 C-1016.12094781 310.8620919 -1015.24204596 309.72406764 -1014.36328125 308.5859375 C-1009.19240799 301.91713414 -1003.86676494 295.4189688 -998.34033203 289.04150391 C-995.32387026 285.55901299 -992.38501777 282.03075317 -989.5 278.4375 C-985.65719092 273.70036445 -981.59483041 269.21215769 -977.42382812 264.76538086 C-974.74724908 261.91033278 -972.12742034 259.01914617 -969.55859375 256.06640625 C-959.06156519 244.01601217 -947.78358726 232.68261898 -936.5 221.375 C-935.94001312 220.81242493 -935.38002625 220.24984985 -934.80307007 219.67022705 C-929.2898694 214.13692475 -923.77282697 208.65933232 -917.82861328 203.58349609 C-914.51060055 200.71024769 -911.36638577 197.65015727 -908.1875 194.625 C-902.79050769 189.52359604 -897.32089878 184.67120934 -891.51171875 180.04296875 C-888.9039846 177.92190349 -886.41948623 175.70399595 -883.9375 173.4375 C-880.00970282 169.86677529 -875.97761234 166.49932798 -871.80859375 163.21484375 C-869.72718193 161.57345223 -867.65836472 159.9208998 -865.59765625 158.25390625 C-817.5192435 119.40901102 -765.10322822 85.68143927 -710.07104492 57.59350586 C-707.85881615 56.4456231 -705.66093865 55.28296664 -703.4699707 54.09594727 C-694.72767396 49.36031487 -685.87784676 45.01896107 -676.8125 40.9375 C-676.11667816 40.6228479 -675.42085632 40.3081958 -674.70394897 39.98400879 C-647.90596265 27.88166805 -620.775163 16.66842883 -593 7 C-592.31417847 6.76043579 -591.62835693 6.52087158 -590.92175293 6.27404785 C-567.86618894 -1.76926438 -544.62904651 -8.84425515 -521 -15 C-520.25703674 -15.19422546 -519.51407349 -15.38845093 -518.74859619 -15.58856201 C-467.48058403 -28.95732373 -414.83866196 -37.95170087 -362 -42 C-360.78989258 -42.09619629 -359.57978516 -42.19239258 -358.33300781 -42.29150391 C-271.99511955 -49.01370274 -184.48142293 -43.65755099 0 0 Z M-736.30664062 107.40722656 C-738.70223236 108.82390898 -741.10558652 110.22527619 -743.515625 111.6171875 C-766.84251382 125.11431776 -789.20107061 140.16969152 -811 156 C-811.72155273 156.52174805 -812.44310547 157.04349609 -813.18652344 157.58105469 C-823.82969812 165.28879465 -834.18955684 173.24894368 -844.31933594 181.61914062 C-846.5868871 183.48219545 -848.88581347 185.30437336 -851.1875 187.125 C-856.65194024 191.48560506 -861.97545238 196.00902711 -867.29248047 200.546875 C-868.98281411 201.98537455 -870.68011492 203.41525437 -872.37890625 204.84375 C-880.86165965 212.00588604 -888.97619506 219.50991803 -897.03271484 227.14599609 C-898.89182251 228.89805165 -900.76419096 230.63406252 -902.64453125 232.36328125 C-910.08508945 239.21379925 -917.33733405 246.23395571 -924.5 253.375 C-925.33692383 254.20733154 -926.17384766 255.03966309 -927.03613281 255.8972168 C-931.3446542 260.2165484 -935.50664793 264.59956131 -939.4609375 269.24658203 C-941.0697505 271.07946512 -942.75895953 272.79292233 -944.5 274.5 C-947.53594925 277.48872337 -950.34508659 280.61706479 -953.125 283.84375 C-955.17359094 286.19962958 -957.27203002 288.5050746 -959.375 290.8125 C-963.26924618 295.12774576 -966.96654724 299.57091755 -970.62109375 304.08984375 C-972.7292198 306.66875 -974.87261 309.20882344 -977.03833008 311.73901367 C-982.39313679 318.00014781 -987.50143813 324.4173563 -992.47314453 330.98730469 C-994.27609427 333.36394646 -996.08903177 335.73281771 -997.90234375 338.1015625 C-1010.13458086 351.25694564 -1010.13458086 351.25694564 -1018 366 C-892.93 366 -767.86 366 -639 366 C-633.06 354.78 -627.12 343.56 -621 332 C-616.545 323.585 -616.545 323.585 -612 315 C-592.43822993 314.9734109 -572.87912187 315.03002219 -553.31783295 315.18517876 C-548.86336916 315.2204439 -544.40889041 315.25350372 -539.95440674 315.28614807 C-539.18096381 315.29181787 -538.40752088 315.29748767 -537.61064029 315.30332929 C-536.02623756 315.31493193 -534.44183476 315.32652473 -532.85743189 315.33810794 C-530.44077527 315.35580332 -528.02411947 315.37360616 -525.60746384 315.39143467 C-469.73795302 315.80311558 -413.87115992 316.09884068 -358 316.0625 C-357.32844313 316.06207577 -356.65688625 316.06165154 -355.96497917 316.06121445 C-339.30996973 316.05050034 -322.65498514 316.03012292 -306 316 C-306.12257109 317.26080855 -306.24514217 318.52161711 -306.37142754 319.82063198 C-307.84162169 335.26759253 -308.89771049 350.7284648 -309.87939453 366.21313477 C-310.05645377 368.97674185 -310.23439685 371.74029187 -310.41229248 374.50384521 C-310.84091355 381.17060734 -311.26644104 387.8375633 -311.69084443 394.50459511 C-312.18597657 402.28092121 -312.6842153 410.05704739 -313.18254159 417.83316933 C-314.07122668 431.70234554 -314.95707097 445.57170171 -315.84130859 459.44116211 C-316.69847442 472.88596551 -317.55779606 486.33062891 -318.41943359 499.77514648 C-318.47267407 500.60588531 -318.52591454 501.43662413 -318.58076836 502.29253686 C-318.66049481 503.53654973 -318.66049481 503.53654973 -318.7418319 504.80569416 C-319.72545563 520.15402089 -320.70698042 535.50248124 -321.68758277 550.85100128 C-322.03376018 556.26860974 -322.38057721 561.68617704 -322.72760391 567.10373116 C-323.14972674 573.69423664 -323.57065525 580.28481719 -323.99008264 586.87549479 C-324.20398187 590.23623613 -324.41855295 593.59693088 -324.63415909 596.9575634 C-324.86761735 600.59792391 -325.0991205 604.23840355 -325.33010864 607.87892151 C-325.39878147 608.94270714 -325.4674543 610.00649277 -325.53820813 611.10251433 C-325.59967585 612.07773635 -325.66114357 613.05295838 -325.72447395 614.05773258 C-325.77806954 614.89751968 -325.83166512 615.73730679 -325.88688481 616.60254198 C-326.0033978 619.0720159 -326.01942672 621.5281589 -326 624 C-320.33780168 619.32481266 -315.15309382 614.27389766 -309.98539925 609.06056404 C-308.50227238 607.5644852 -307.01587962 606.07171765 -305.52867126 604.57969666 C-301.83721287 600.87498237 -298.15124915 597.16481712 -294.46514893 593.45477295 C-291.34138184 590.31113594 -288.21547854 587.1696516 -285.0868206 584.03088188 C-283.63586006 582.57352839 -282.18799054 581.11315397 -280.74024963 579.65260315 C-279.84249313 578.75154343 -278.94473663 577.8504837 -278.01977539 576.92211914 C-277.24146866 576.13857559 -276.46316193 575.35503204 -275.66127014 574.54774475 C-273.53282664 572.51009713 -271.37583451 570.57332338 -269.1481781 568.6481781 C-265.13189387 565.15942759 -261.35460772 561.48288335 -257.609375 557.70703125 C-256.91880005 557.01499603 -256.2282251 556.32296082 -255.51672363 555.60995483 C-254.03155022 554.12100346 -252.54753208 552.63089898 -251.0645752 551.13973999 C-248.71180265 548.77409364 -246.35582412 546.41168172 -243.99902344 544.05004883 C-238.99652596 539.03617606 -233.99797137 534.018384 -229 529 C-223.20405163 523.18037992 -217.40645992 517.36241688 -211.60461426 511.54867554 C-209.29390529 509.23152763 -206.98625109 506.91136741 -204.67871094 504.59106445 C-203.24949865 503.15821656 -201.82014404 501.7255106 -200.390625 500.29296875 C-199.75870239 499.65587982 -199.12677979 499.01879089 -198.47570801 498.36239624 C-195.40797414 495.29430507 -192.28882508 492.34321967 -189.0057373 489.5057373 C-184.9988149 486.04195272 -181.24651635 482.37421422 -177.51757812 478.61523438 C-176.8172496 477.91344559 -176.11692108 477.2116568 -175.39537048 476.48860168 C-173.88891646 474.97836912 -172.38361774 473.46698341 -170.87937927 471.95454407 C-168.49300047 469.55529417 -166.10341784 467.15927612 -163.7130127 464.76403809 C-158.63918622 459.678835 -153.56930185 454.58971305 -148.5 449.5 C-142.62144456 443.59777496 -136.74124709 437.69720548 -130.85679626 431.80085754 C-128.51284929 429.45047046 -126.17195622 427.0970713 -123.83117676 424.74353027 C-122.38174145 423.29045943 -120.93216386 421.83753049 -119.48242188 420.38476562 C-118.84114853 419.73832596 -118.19987518 419.09188629 -117.53916931 418.42585754 C-113.81311908 414.69937928 -109.96067553 411.19377917 -105.97437286 407.74852753 C-102.7203363 404.86671497 -99.66941045 401.7920842 -96.609375 398.70703125 C-95.91880005 398.01499603 -95.2282251 397.32296082 -94.51672363 396.60995483 C-93.03155022 395.12100346 -91.54753208 393.63089898 -90.0645752 392.13973999 C-87.71180265 389.77409364 -85.35582412 387.41168172 -82.99902344 385.05004883 C-77.99652596 380.03617606 -72.99797137 375.018384 -68 370 C-62.20405163 364.18037992 -56.40645992 358.36241688 -50.60461426 352.54867554 C-48.29390529 350.23152763 -45.98625109 347.91136741 -43.67871094 345.59106445 C-42.24949865 344.15821656 -40.82014404 342.7255106 -39.390625 341.29296875 C-38.75870239 340.65587982 -38.12677979 340.01879089 -37.47570801 339.36239624 C-34.50457951 336.39092168 -31.49859756 333.55743806 -28.27256489 330.86374283 C-25.24898715 328.24494966 -22.66541713 325.51585205 -20.12351513 322.4292717 C-13.73225101 314.86085676 -8.00131241 308.24208148 2.28056371 307.17906332 C7.53162059 307.01562719 12.71647281 307.25668377 17.95776367 307.56738281 C20.31786894 307.63840198 22.67823257 307.7012279 25.03875732 307.75657654 C31.42119671 307.92920293 37.79396445 308.21538134 44.17115188 308.52254963 C50.24287202 308.80601201 56.31813805 308.98386174 62.39340345 309.17214391 C74.49765291 309.55003678 86.59730695 310.01003608 98.6965332 310.52294922 C110.26102337 311.0130055 121.8258942 311.46768429 133.39379883 311.86962891 C134.09926727 311.8941507 134.80473571 311.91867249 135.53158198 311.94393736 C139.08067541 312.06704368 142.62979592 312.18934793 146.17893195 312.31121922 C153.19625723 312.55234621 160.21340713 312.79845382 167.23049927 313.04626465 C167.91794311 313.07053022 168.60538695 313.0947958 169.31366242 313.11979669 C184.87909699 313.67046436 200.44217205 314.27851411 216.00537109 314.88867188 C238.90103089 315.78466574 261.79683565 316.5980478 284.70118546 317.23620892 C286.80137656 317.29513802 288.90151141 317.35577232 291.00163841 317.41693878 C308.33814234 317.91579428 325.65649227 318.0959847 343 318 C333.75857514 336.86402518 323.61171079 355.24613401 313.5378418 373.67480469 C309.08457484 381.8272452 304.68076023 390.00595467 300.28125 398.1875 C295.83609627 406.45255507 291.37064177 414.70640717 286.89697266 422.95605469 C282.89578413 430.33782933 278.91408492 437.72994735 274.9375 445.125 C270.16820749 453.99273947 265.36659613 462.84194862 260.53662109 471.67675781 C256.08486274 479.82728468 251.68213783 488.00384691 247.28344727 496.18310547 C240.68187748 508.45677888 234.03865251 520.70778021 227.39550781 532.95898438 C225.78420796 535.93082859 224.1732283 538.90284597 222.5625 541.875 C222.02947266 542.85855469 221.49644531 543.84210937 220.94726562 544.85546875 C216.93065867 552.27148495 212.93211096 559.69711767 208.9375 567.125 C204.16816898 575.99271892 199.36659628 584.84194835 194.53662109 593.67675781 C190.08486274 601.82728468 185.68213783 610.00384691 181.28344727 618.18310547 C174.68187748 630.45677888 168.03865251 642.70778021 161.39550781 654.95898438 C159.78420796 657.93082859 158.1732283 660.90284597 156.5625 663.875 C156.02947266 664.85855469 155.49644531 665.84210937 154.94726562 666.85546875 C150.93065867 674.27148495 146.93211096 681.69711767 142.9375 689.125 C138.16816898 697.99271892 133.36659628 706.84194835 128.53662109 715.67675781 C124.08407839 723.8287207 119.68039776 732.00662873 115.28125 740.1875 C110.83609627 748.45255507 106.37064177 756.70640717 101.89697266 764.95605469 C97.89578413 772.33782933 93.91408492 779.72994735 89.9375 787.125 C85.16820749 795.99273947 80.36659613 804.84194862 75.53662109 813.67675781 C71.08486274 821.82728468 66.68213783 830.00384691 62.28344727 838.18310547 C55.68187748 850.45677888 49.03865251 862.70778021 42.39550781 874.95898438 C40.78420796 877.93082859 39.1732283 880.90284597 37.5625 883.875 C37.02947266 884.85855469 36.49644531 885.84210937 35.94726562 886.85546875 C31.93065867 894.27148495 27.93211096 901.69711767 23.9375 909.125 C19.16816898 917.99271892 14.36659628 926.84194835 9.53662109 935.67675781 C5.09383396 943.81085966 0.6968526 951.96929903 -3.68798828 960.13476562 C-6.69862142 965.73851721 -9.72376645 971.33357706 -12.77734375 976.9140625 C-13.3813501 978.02023926 -13.98535645 979.12641602 -14.60766602 980.26611328 C-15.76486139 982.38356181 -16.92538152 984.49919754 -18.08959961 986.61279297 C-18.86122437 988.0264917 -18.86122437 988.0264917 -19.6484375 989.46875 C-20.10395996 990.29826172 -20.55948242 991.12777344 -21.02880859 991.98242188 C-22.14457679 993.92715436 -22.14457679 993.92715436 -22 996 C-113.41 996 -204.82 996 -299 996 C-290.585 975.705 -290.585 975.705 -282 955 C-278.88160727 947.33861648 -275.77064334 939.67543626 -272.6875 932 C-271.10952035 928.0801451 -269.52973915 924.16101858 -267.94921875 920.2421875 C-267.55145233 919.25572235 -267.15368591 918.2692572 -266.74386597 917.25289917 C-263.6709749 909.64102573 -260.5690159 902.04127751 -257.45703125 894.4453125 C-256.99898605 893.32662781 -256.54094086 892.20794312 -256.0690155 891.05535889 C-253.85268456 885.64345151 -251.63316718 880.23288367 -249.40893555 874.82421875 C-248.6058426 872.86463023 -247.80285844 870.90499711 -247 868.9453125 C-246.63836258 868.06924347 -246.27672516 867.19317444 -245.90412903 866.29055786 C-243.71019191 860.92550413 -241.75890119 855.52311214 -240 850 C-244.76141834 853.87557306 -249.15516592 858.04514165 -253.5 862.375 C-254.03326904 862.90375732 -254.56653809 863.43251465 -255.1159668 863.97729492 C-257.97444426 866.84622227 -260.70313312 869.7804764 -263.34375 872.8515625 C-268.04780291 878.28622828 -273.2060806 883.25295844 -278.328125 888.2890625 C-281.83092927 891.75612387 -285.25763721 895.22804602 -288.46875 898.96875 C-293.31296029 904.60544631 -298.67931072 909.72387138 -303.97265625 914.93359375 C-308.2347238 919.1546141 -312.30658559 923.43968391 -316.21289062 927.99023438 C-320.35056164 932.6434185 -324.89008232 936.92548362 -329.328125 941.2890625 C-332.841314 944.76640264 -336.27725264 948.25002899 -339.5 952 C-344.13802012 957.39677457 -349.25752903 962.30354364 -354.328125 967.2890625 C-355.08609375 968.03929687 -355.8440625 968.78953125 -356.625 969.5625 C-357.63433594 970.55443359 -357.63433594 970.55443359 -358.6640625 971.56640625 C-360.53981057 973.52057188 -362.33755291 975.49755777 -364.11902905 977.5358839 C-364.74136972 978.24518531 -365.36371039 978.95448672 -366.00490987 979.68528211 C-367.34364793 981.23849562 -368.6624581 982.80909314 -369.96148932 984.39566481 C-384.13436028 1001.5797784 -384.13436028 1001.5797784 -395.41150033 1003.13209665 C-400.65667375 1003.47155115 -405.84562402 1003.39582327 -411.09643555 1003.2487793 C-413.45391758 1003.2532932 -415.81139595 1003.26619145 -418.16879272 1003.28674316 C-424.51085034 1003.31866406 -430.84649347 1003.23470087 -437.18753791 1003.12841392 C-443.15978789 1003.04645589 -449.13170249 1003.05301377 -455.10436223 1003.05860243 C-466.91893735 1003.06682623 -478.73136517 1002.99090072 -490.54516602 1002.8605957 C-502.00746785 1002.73435119 -513.46891642 1002.64864698 -524.93188477 1002.61645508 C-525.64078496 1002.61445033 -526.34968516 1002.61244558 -527.08006718 1002.61038008 C-530.63711665 1002.60056761 -534.1941676 1002.59154153 -537.75122011 1002.58290613 C-567.16857869 1002.51047626 -596.58407748 1002.29944183 -626 1002 C-625.84623209 1001.15600993 -625.69246418 1000.31201986 -625.53403664 999.44245434 C-624.98855741 995.92623992 -624.69073936 992.47094384 -624.45541382 988.92073059 C-624.38569522 987.88716062 -624.38569522 987.88716062 -624.31456816 986.83271044 C-624.16045946 984.53684823 -624.01063886 982.24072721 -623.86083984 979.94458008 C-623.75093818 978.29339517 -623.64078881 976.64222674 -623.53041077 974.99107361 C-623.23214532 970.5163551 -622.93778306 966.0413881 -622.64445448 961.56634355 C-622.39934162 957.83080549 -622.15257015 954.09537765 -621.90587866 950.35994357 C-621.32430566 941.55175757 -620.74615675 932.74335114 -620.16992188 923.93481445 C-619.57496121 914.84124029 -618.97331532 905.74812505 -618.36855352 896.65519792 C-617.84965802 888.8490022 -617.3353349 881.04251405 -616.82460368 873.23577994 C-616.51945275 868.57256938 -616.212444 863.90949916 -615.90085983 859.24671364 C-615.60831947 854.8664766 -615.32145606 850.48590474 -615.03901482 846.10500526 C-614.93425143 844.49517842 -614.82744175 842.88548329 -614.71846581 841.27593613 C-614.57035612 839.08371273 -614.42954842 836.89113995 -614.2906189 834.69831848 C-614.20987814 833.469987 -614.12913738 832.24165552 -614.04594994 830.97610188 C-613.83499053 827.94363564 -613.83499053 827.94363564 -615 825 C-622.19194471 837.81940249 -629.36787393 850.64720729 -636.5 863.5 C-641.88648797 873.20680602 -647.29796247 882.8991923 -652.72827148 892.58154297 C-657.02724811 900.25116386 -661.29852926 907.93587244 -665.5625 915.625 C-670.68848166 924.86650287 -675.85907591 934.08105591 -681.07299805 943.27319336 C-684.03759059 948.50683417 -686.98090163 953.75170143 -689.8984375 959.01171875 C-690.39546173 959.90777328 -690.39546173 959.90777328 -690.90252686 960.82192993 C-692.50836765 963.7185192 -694.11184173 966.61638236 -695.71289062 969.515625 C-707.11249469 990.11249469 -707.11249469 990.11249469 -709 992 C-710.40668462 992.11642071 -711.81907559 992.16471295 -713.2304163 992.18551731 C-714.14854038 992.20144194 -715.06666447 992.21736657 -716.0126105 992.23377377 C-717.54322034 992.2527502 -717.54322034 992.2527502 -719.10475159 992.27210999 C-720.17958028 992.28929862 -721.25440898 992.30648725 -722.36180824 992.32419676 C-725.99318467 992.38105955 -729.62462477 992.43084502 -733.25610352 992.48071289 C-735.84735749 992.51984605 -738.43860497 992.55941187 -741.02984619 992.59938049 C-746.6239391 992.68497918 -752.21807575 992.76696038 -757.81225777 992.84651375 C-765.9005947 992.96154101 -773.98884387 993.08197869 -782.07708167 993.20375483 C-795.19838636 993.40116084 -808.31975198 993.59416556 -821.44116211 993.78442383 C-834.19054576 993.96929716 -846.93989645 994.15623003 -859.68920898 994.34594727 C-860.86718465 994.36347515 -860.86718465 994.36347515 -862.06895781 994.38135714 C-866.00849842 994.43998896 -869.94803843 994.49866142 -873.88757813 994.55735409 C-906.59162728 995.04453809 -939.29577757 995.52458827 -972 996 C-969.83293104 991.78565562 -967.66406582 987.57224205 -965.49365234 983.35961914 C-964.7581523 981.93147774 -964.02311275 980.50309907 -963.28857422 979.07446289 C-958.96097681 970.65837817 -954.58301599 962.28087241 -950 954 C-945.17344446 945.24562415 -940.56160681 936.39421703 -936 927.5 C-930.96644668 917.68576002 -925.83884808 907.9421961 -920.5078125 898.28515625 C-916.37089155 890.75841328 -912.42499837 883.13842918 -908.5 875.5 C-903.6535899 866.06861138 -898.70232831 856.70844341 -893.57836914 847.42407227 C-888.53953948 838.25029599 -883.75895474 828.94504247 -878.98632812 819.63085938 C-878.67699844 819.02846939 -878.36766876 818.42607941 -878.04896545 817.80543518 C-877.2067723 816.16463406 -876.36685692 814.52266435 -875.52709961 812.88061523 C-874.51359109 810.96880276 -873.43823776 809.08845974 -872.30297852 807.24633789 C-870.83275079 805.14447535 -870.83275079 805.14447535 -871 803 C-871.55169861 802.94846268 -872.10339722 802.89692535 -872.67181396 802.84382629 C-933.03742755 797.18044121 -987.78400576 790.77957454 -1033 747 C-1033.74765625 746.29230469 -1034.4953125 745.58460938 -1035.265625 744.85546875 C-1044.94431724 735.50066976 -1056.09628767 723.12610496 -1061.45703125 710.59375 C-1064.59351878 707.39462908 -1065.59142001 707.59909511 -1069.9609375 707.51953125 C-1072.43312628 707.59308926 -1074.90463977 707.69229817 -1077.375 707.8125 C-1103.98840101 708.45201482 -1128.6110051 704.8542324 -1149.5859375 686.9921875 C-1152.61654551 684.49120031 -1155.78582414 682.26008959 -1159 680 C-1178.08621196 765.4189082 -1185.5491541 852.32716786 -1156 1096 C-1155.81802063 1096.74169434 -1155.63604126 1097.48338867 -1155.44854736 1098.24755859 C-1148.96341467 1124.55075196 -1141.25927087 1150.53700512 -1132 1176 C-573.64 1176 -15.28 1176 560 1176 C569.9910566 1145.94622833 569.9910566 1145.94622833 578.75 1115.5625 C578.96579712 1114.74410645 579.18159424 1113.92571289 579.40393066 1113.08251953 C594.68305426 1055.06414691 604.13130776 995.86155342 608 936 C608.04805786 935.2857486 608.09611572 934.57149719 608.14562988 933.83560181 C609.25083647 916.97139184 609.2454738 900.08048146 609.25 883.1875 C609.25044186 882.42966469 609.25088371 881.67182938 609.25133896 880.89102936 C609.27812681 792.96057114 596.69143232 705.95168289 563 596 C562.78255127 595.34765381 562.56510254 594.69530762 562.34106445 594.02319336 C544.82838823 541.69513308 522.27588048 490.37709611 494.53369141 442.65283203 C492.98599986 439.97578391 491.4641308 437.28556043 489.94921875 434.58984375 C460.75834261 382.72905555 425.05208551 333.29650931 385.0390625 289.25390625 C383.20913753 287.2311731 381.41118272 285.18630565 379.625 283.125 C372.69144491 275.18030146 365.55597502 267.48071296 358.046875 260.078125 C356.11109792 258.11279407 354.29614854 256.09276023 352.5 254 C346.8699436 247.45977282 340.7116148 241.55377363 334.1640625 235.9453125 C331.51023588 233.55974272 329.00521972 231.03902778 326.5 228.5 C322.8185361 224.77400732 319.06704852 221.20143753 315.08203125 217.80078125 C312.56846422 215.62675798 310.13223771 213.37609512 307.6875 211.125 C303.22126486 207.05140091 298.63078621 203.19172297 293.92578125 199.3984375 C291.27768561 197.22763547 288.68853577 195.00705377 286.10766602 192.7578125 C279.0927862 186.65327569 271.83564736 180.95181798 264.4140625 175.3515625 C261.44405381 173.10858033 258.5043485 170.83314766 255.5859375 168.5234375 C246.51254622 161.34759923 237.25448906 154.61279995 227.65625 148.15625 C223.90208828 145.62857229 220.21166641 143.02442954 216.53710938 140.3828125 C207.98556642 134.24161142 199.16464607 128.70270991 190.13623047 123.29394531 C187.52497617 121.71227128 184.94886627 120.0795914 182.3737793 118.43994141 C114.24051329 75.17198851 38.27084447 42.19192305 -67 13 C-68.07897552 12.72703094 -68.07897552 12.72703094 -69.17974854 12.44854736 C-149.54488695 -7.79610583 -232.8211088 -16.42428418 -736.30664062 107.40722656 Z M-1470 384 C-1473.48775994 403.97773515 -1469.04959395 421.48390006 -1458.4609375 438.46875 C-1457.06876209 440.42868409 -1455.6053191 442.21110426 -1454 444 C-1453.03513672 445.10214844 -1453.03513672 445.10214844 -1452.05078125 446.2265625 C-1439.19394001 460.02977805 -1421.60753836 465.06936534 -1403.6875 468.75 C-1402.72948486 468.94867676 -1401.77146973 469.14735352 -1400.78442383 469.35205078 C-1383.34403512 472.70923571 -1365.87196525 473.29350879 -1348.16381836 473.22827148 C-1345.8852166 473.22726984 -1343.60661438 473.22707908 -1341.32801247 473.22760963 C-1335.02979243 473.22613753 -1328.7316661 473.21125421 -1322.43347287 473.1937058 C-1318.3398421 473.18281359 -1314.24621253 473.17686675 -1310.15257072 473.17196465 C-1228.12290146 473.07184388 -1146.09343726 472.6067837 -1064.06495361 472.18311255 C-1047.30885632 472.09657939 -1030.55274904 472.01232027 -1013.79663086 471.92993164 C-1009.35146903 471.90806539 -1004.90630721 471.88619847 -1000.4611454 471.86432838 C-999.36316515 471.85892653 -998.26518489 471.85352468 -997.13393251 471.84795914 C-901.96523851 471.37939474 -806.79729771 470.84959746 -691 470 C-689.40336932 466.96803891 -687.80700839 463.93593588 -686.21069336 460.90380859 C-685.76198631 460.05173325 -685.31327927 459.1996579 -684.85097504 458.32176208 C-681.4003657 451.76701508 -677.96932988 445.2026282 -674.5625 438.625 C-673.71727783 436.99328857 -673.71727783 436.99328857 -672.85498047 435.32861328 C-670.90135811 431.55341944 -668.95009305 427.77701773 -667 424 C-666.60097473 423.2272876 -666.20194946 422.4545752 -665.79083252 421.65844727 C-663.16735249 416.57704846 -660.5469975 411.4940524 -657.92990112 406.40936279 C-657.06071269 404.72123578 -656.19086099 403.0334501 -655.32034302 401.3460083 C-654.09960154 398.97908158 -652.88148602 396.61082212 -651.6640625 394.2421875 C-651.2928981 393.52371643 -650.9217337 392.80524536 -650.5393219 392.06500244 C-648.7769647 389.1709678 -648.7769647 389.1709678 -648 386 C-737.19347197 385.17994182 -826.38569652 384.77801886 -946.62659848 384.48234075 C-960.48482121 384.44986141 -974.3430402 384.41609804 -988.20125766 384.38144209 C-1089.21455407 384.12907339 -1190.22765708 383.94316214 -1470 384 Z M-1330 490 C-1329.69474917 492.05587841 -1329.38635287 494.11128992 -1329.07666016 496.16650391 C-1328.9052652 497.31116119 -1328.73387024 498.45581848 -1328.55728149 499.63516235 C-1323.96613084 527.35629923 -1310.93158092 546.10455988 -1289 563 C-1285.43010141 565.52668426 -1281.79178024 567.82259892 -1278 570 C-1277.27296875 570.43699219 -1276.5459375 570.87398437 -1275.796875 571.32421875 C-1262.04737299 578.94413507 -1245.45728525 582.09292708 -1230 584 C-1228.93548096 584.13243556 -1228.93548096 584.13243556 -1227.84945649 584.26754659 C-1218.49945409 585.26933832 -1209.14860066 585.13585928 -1199.758255 585.12025452 C-1197.80185548 585.12069101 -1195.84545602 585.12156736 -1193.88905686 585.12284368 C-1188.53235936 585.12507324 -1183.17568196 585.12108845 -1177.81898701 585.11606562 C-1172.03521357 585.11173918 -1166.25144123 585.1132091 -1160.46766663 585.1139679 C-1150.45327296 585.11449174 -1140.43888582 585.1113595 -1130.42449379 585.10573006 C-1115.94543898 585.09759618 -1101.46638731 585.0949979 -1086.98733046 585.09374207 C-1063.49488846 585.09164344 -1040.00244985 585.08491108 -1016.51000977 585.07543945 C-993.69197609 585.06625037 -970.87394335 585.05916903 -948.0559082 585.05493164 C-947.3521606 585.05480011 -946.648413 585.05466859 -945.92333971 585.05453308 C-938.85581077 585.05321452 -931.78828182 585.05193871 -924.72075287 585.05069422 C-910.32426712 585.04815822 -895.92778144 585.04533697 -881.53129578 585.04234314 C-880.86941519 585.04220585 -880.20753461 585.04206856 -879.52559704 585.04192711 C-835.35039661 585.03273142 -791.17519809 585.01686596 -747 585 C-744.80716324 580.20764297 -742.61479703 575.41507104 -740.42284203 570.62231064 C-739.67912922 568.99633276 -738.93529414 567.3704108 -738.19132805 565.7445488 C-733.24443562 554.93334998 -728.31619375 544.11524256 -723.50634766 533.2421875 C-722.6015169 531.19691909 -721.69352102 529.15307602 -720.78515625 527.109375 C-717.0695945 518.73791094 -713.4044757 510.34496716 -709.75537109 501.94433594 C-709.06643013 500.35901566 -709.06643013 500.35901566 -708.36357117 498.7416687 C-707.2421926 496.16119416 -706.12100617 493.58063633 -705 491 C-744.81457541 490.82333425 -784.62920238 490.6610313 -824.44387901 490.50904435 C-826.80317018 490.50003563 -829.16246127 490.49100511 -831.52175236 490.48197412 C-921.08665016 490.13962748 -1010.65086864 489.9440571 -1175.50505918 489.93684149 C-1178.38469517 489.93750222 -1181.26433116 489.93814487 -1184.14396715 489.93878555 C-1232.76264966 489.94972364 -1281.38132573 489.96967129 -1330 490 Z M-816.32460105 601.08454299 C-821.08296717 601.097011 -825.8413341 601.10916166 -830.59970093 601.12135315 C-838.82031614 601.14245769 -847.04093083 601.16375806 -855.26154518 601.18519592 C-867.14680462 601.21619023 -879.03206482 601.24688221 -890.91732522 601.27750319 C-910.20587036 601.32720595 -929.49441487 601.37714923 -948.78295898 601.42724609 C-967.50691699 601.47587608 -986.23087529 601.52439134 -1004.95483398 601.57275391 C-1006.68947011 601.5772344 -1006.68947011 601.5772344 -1008.4591494 601.58180541 C-1014.26126979 601.59679134 -1020.06339018 601.61177504 -1025.86551058 601.62675762 C-1073.91034129 601.75082476 -1121.95517098 601.87528321 -1170 602 C-1174.27044802 612.25972474 -1171.73264796 622.86145487 -1168 633 C-1159.32531222 653.9154135 -1146.14959619 672.58949525 -1124.9375 681.875 C-1113.15141442 686.39611748 -1101.56258995 688.1756556 -1089 688.125 C-1087.56140625 688.13080078 -1087.56140625 688.13080078 -1086.09375 688.13671875 C-1085.1553125 688.13542969 -1084.216875 688.13414062 -1083.25 688.1328125 C-1082.40953125 688.13168457 -1081.5690625 688.13055664 -1080.703125 688.12939453 C-1077.9429485 688.05051039 -1077.9429485 688.05051039 -1075.02667904 687.50180149 C-1069.9892514 686.76962619 -1064.95095061 686.84658764 -1059.87001038 686.84178162 C-1058.75738671 686.83684364 -1057.64476305 686.83190566 -1056.49842352 686.82681805 C-1052.77507353 686.81147584 -1049.05174075 686.80309127 -1045.32836914 686.79467773 C-1042.65741732 686.78509664 -1039.98646954 686.7751293 -1037.31552124 686.76467896 C-1031.56761958 686.74295887 -1025.81971558 686.72479813 -1020.07179451 686.70907402 C-1011.76132764 686.68633459 -1003.4508859 686.65819748 -995.1404404 686.62875474 C-981.65638218 686.58112869 -968.17231367 686.53785104 -954.68823242 686.49731445 C-941.59187011 686.45793412 -928.49551693 686.41650184 -915.39916992 686.37231445 C-914.59153318 686.36959018 -913.78389645 686.36686591 -912.95178587 686.36405908 C-908.89999689 686.35037919 -904.84820804 686.336659 -900.79641926 686.32291877 C-867.19763172 686.20903236 -833.59882509 686.10220573 -800 686 C-798.74465533 683.49933371 -797.49043198 680.99811501 -796.23681641 678.49658203 C-795.88700211 677.80003006 -795.53718781 677.10347809 -795.17677307 676.38581848 C-792.1325781 670.30775828 -789.19684905 664.18184434 -786.31689453 658.02416992 C-785.99996643 657.34712006 -785.68303833 656.67007019 -785.35650635 655.97250366 C-785.03260925 655.28032745 -784.70871216 654.58815125 -784.375 653.875 C-783.6874634 652.40920189 -782.99979815 650.94346411 -782.31201172 649.4777832 C-780.55429602 645.7304533 -778.79934684 641.9818348 -777.04516602 638.23284912 C-776.00947082 636.02023306 -774.97270046 633.80812419 -773.93554688 631.59619141 C-772.30356478 628.11557201 -770.67316439 624.63421699 -769.04425049 621.15216064 C-768.43651297 619.85327856 -767.82840567 618.55456941 -767.21990967 617.25604248 C-766.37697282 615.45650845 -765.53609692 613.65600946 -764.6953125 611.85546875 C-764.22109863 610.84121826 -763.74688477 609.82696777 -763.25830078 608.78198242 C-762.09602302 606.21229768 -761.03836191 603.62152763 -760 601 C-778.77495777 600.98138258 -797.54973066 601.03510951 -816.32460105 601.08454299 Z M-978.125 702.5 C-978.96237544 702.50597372 -979.79975088 702.51194743 -980.66250134 702.51810217 C-1002.44170637 702.67357547 -1024.22087134 702.83416933 -1046 703 C-1045.373222 704.27985043 -1044.74339923 705.55821004 -1044.11230469 706.8359375 C-1043.76190125 707.5479834 -1043.4114978 708.2600293 -1043.05047607 708.99365234 C-1026.82819266 739.97726168 -987.53198817 761.05831388 -955.76904297 771.48242188 C-927.00032322 780.47157462 -895.71011309 782.0506499 -865.8125 779.25 C-865.06033203 779.1883667 -864.30816406 779.1267334 -863.53320312 779.06323242 C-858.9094129 778.53963059 -856.98767775 777.48672238 -854 774 C-852.35824379 771.290567 -852.35824379 771.290567 -850.88720703 768.22851562 C-850.30625275 767.06630493 -849.72529846 765.90409424 -849.1267395 764.70666504 C-848.50360264 763.43993931 -847.88063124 762.17313217 -847.2578125 760.90625 C-846.60600022 759.59514924 -845.95347112 758.28440464 -845.30026245 756.97399902 C-843.58247597 753.52318258 -841.87433075 750.06768116 -840.16821289 746.61108398 C-838.44984767 743.1337369 -836.72266877 739.66077597 -834.99609375 736.1875 C-832.44970186 731.06295556 -829.9082481 725.93600574 -827.37158203 720.80664062 C-824.26558629 714.52878502 -821.13818573 708.26181912 -818 702 C-828.62498516 701.96644261 -839.24996925 701.94813069 -849.875 701.9375 C-850.72395592 701.93664398 -851.57291183 701.93578796 -852.44759369 701.93490601 C-894.34121493 701.89799457 -936.23273359 702.20079768 -978.125 702.5 Z M-770 1219 C-770.71285156 1219.25652344 -771.42570313 1219.51304688 -772.16015625 1219.77734375 C-788.61803436 1226.87746214 -798.86953177 1244.87181361 -805.54150391 1260.64404297 C-806.73538726 1263.76959328 -807.89394072 1266.90129861 -809.01376343 1270.05380249 C-810.07102427 1273.02811278 -811.15515243 1275.99247073 -812.23710632 1278.95787048 C-812.83942785 1280.60886734 -813.4405644 1282.26029693 -814.04060364 1283.91212463 C-817.74000692 1294.07955043 -821.57938579 1304.19404761 -825.41015625 1314.31253052 C-827.54646333 1319.95703396 -829.67719721 1325.6036409 -831.80859375 1331.25 C-832.67039774 1333.53255677 -833.53221419 1335.81510884 -834.39404297 1338.09765625 C-834.82255554 1339.23267578 -835.25106812 1340.36769531 -835.69256592 1341.53710938 C-836.57059447 1343.8626697 -837.44872912 1346.18818997 -838.32696533 1348.51367188 C-840.90285951 1355.33511543 -843.47542281 1362.15779737 -846.04312134 1368.98233032 C-846.8444756 1371.11052801 -847.64701743 1373.23827893 -848.45077515 1375.36557007 C-849.55877719 1378.29856446 -850.66271532 1381.23305639 -851.765625 1384.16796875 C-852.09583145 1385.03925415 -852.4260379 1385.91053955 -852.76625061 1386.80822754 C-853.21115089 1387.99599792 -853.21115089 1387.99599792 -853.66503906 1389.20776367 C-853.92448303 1389.89617844 -854.183927 1390.5845932 -854.45123291 1391.29386902 C-855.10206507 1393.01862071 -855.10206507 1393.01862071 -855 1395 C-875.79 1395 -896.58 1395 -918 1395 C-918 1401.27 -918 1407.54 -918 1414 C-908.78539971 1414.22180326 -899.57087061 1414.42558212 -890.35521889 1414.59840012 C-886.07518156 1414.679367 -881.79559618 1414.76796049 -877.51611328 1414.87451172 C-873.37958963 1414.97721409 -869.24310918 1415.05919255 -865.10587692 1415.12732697 C-863.5342316 1415.15675297 -861.96270317 1415.19341515 -860.39140701 1415.2377243 C-850.30752321 1415.51622956 -841.79207532 1415.15755334 -833.30078125 1409.0625 C-823.77350697 1399.17959073 -818.56279759 1387.31817917 -813.625 1374.6875 C-813.3334201 1373.95023682 -813.04184021 1373.21297363 -812.74142456 1372.45336914 C-800.5335478 1341.57378242 -789.64771817 1310.16379113 -778.82055664 1278.77929688 C-768.64078084 1249.30542296 -768.64078084 1249.30542296 -757 1243 C-750.45327716 1240.43265771 -743.11694464 1239.93220456 -736.2890625 1241.703125 C-733.27501261 1243.41074371 -732.97252682 1244.71623725 -732 1248 C-732.26799284 1256.38977028 -735.27572783 1264.14701356 -738.4375 1271.8125 C-739.15921387 1273.60602905 -739.15921387 1273.60602905 -739.89550781 1275.43579102 C-740.98622516 1278.14600188 -742.08478909 1280.85286194 -743.18896484 1283.55761719 C-745.09325769 1288.22334894 -746.97897368 1292.89648073 -748.86328125 1297.5703125 C-751.50852077 1304.12739321 -754.15820158 1310.68265488 -756.81228638 1317.23616028 C-763.71573634 1334.28302191 -770.59834261 1351.3382816 -777.47226143 1368.39707088 C-779.25900437 1372.83116661 -781.04637163 1377.2650081 -782.83532715 1381.69821167 C-784.53523582 1385.9107973 -786.23349933 1390.12404232 -787.93049812 1394.33780098 C-788.5655326 1395.91382168 -789.20116216 1397.48960275 -789.83740044 1399.06513786 C-790.71180682 1401.23077183 -791.58408324 1403.39725137 -792.45581055 1405.56396484 C-792.94921432 1406.78787933 -793.4426181 1408.01179382 -793.95097351 1409.27279663 C-795.05983492 1411.66855534 -795.05983492 1411.66855534 -795 1413 C-785.76 1413 -776.52 1413 -767 1413 C-763.87162089 1406.83440675 -763.87162089 1406.83440675 -761.13842773 1400.56518555 C-760.82442017 1399.77842438 -760.5104126 1398.99166321 -760.18688965 1398.18106079 C-759.69025818 1396.92161148 -759.69025818 1396.92161148 -759.18359375 1395.63671875 C-758.63632629 1394.26222061 -758.63632629 1394.26222061 -758.07800293 1392.85995483 C-757.28163934 1390.85905497 -756.48680676 1388.85754523 -755.69332886 1386.85549927 C-753.49069704 1381.29906063 -751.27573318 1375.74753491 -749.0625 1370.1953125 C-748.58586411 1368.99876541 -748.10922821 1367.80221832 -747.6181488 1366.56941223 C-741.72277754 1351.7750122 -735.76769222 1337.00464441 -729.81285477 1322.23410416 C-728.9513611 1320.09688699 -728.09022073 1317.95952784 -727.22921753 1315.82211304 C-725.84883758 1312.39537227 -724.46796902 1308.96882891 -723.08661079 1305.54248238 C-722.549572 1304.21039798 -722.01261823 1302.87827931 -721.47575188 1301.54612541 C-718.61961905 1294.46046857 -715.75133896 1287.38013133 -712.85205078 1280.31201172 C-712.47274021 1279.38607853 -712.47274021 1279.38607853 -712.08576679 1278.44143963 C-710.89947844 1275.54564199 -709.71057894 1272.65098999 -708.51609802 1269.75856018 C-706.35160385 1264.48124379 -704.32105551 1259.2208035 -702.62434387 1253.77331543 C-701.82314047 1251.49766829 -700.73977996 1249.84748649 -699.125 1248.0625 C-698.65320313 1247.51722656 -698.18140625 1246.97195313 -697.6953125 1246.41015625 C-693.34123335 1242.78844525 -688.9365989 1242.72815651 -683.4375 1242.75 C-682.13683594 1242.74484375 -680.83617187 1242.7396875 -679.49609375 1242.734375 C-674.54076087 1243.11086957 -674.54076087 1243.11086957 -672 1245 C-668.89853517 1249.62742517 -669.45862554 1254.66882472 -670 1260 C-673.21154709 1273.10002905 -679.63564851 1285.00927817 -685.625 1297 C-686.63017632 1299.03110928 -687.63423864 1301.06277024 -688.63720703 1303.0949707 C-690.57825098 1307.02678782 -692.52282866 1310.95681654 -694.47070312 1314.88525391 C-697.31665797 1320.63169232 -700.11822756 1326.39766882 -702.875 1332.1875 C-703.26776123 1333.0112915 -703.66052246 1333.83508301 -704.06518555 1334.68383789 C-706.74793947 1340.32869795 -709.40619029 1345.98512 -712.06640625 1351.640625 C-712.42609497 1352.40526566 -712.78578369 1353.16990631 -713.15637207 1353.9577179 C-714.94674931 1357.76466228 -716.73548997 1361.57236022 -718.52099609 1365.3815918 C-723.97380313 1377.00439635 -723.97380313 1377.00439635 -726.39453125 1381.80859375 C-730.2956964 1389.56346463 -730.91671108 1397.41445862 -730 1406 C-727.63035476 1411.7686699 -724.36624049 1415.43213105 -718.63256836 1418.10266113 C-708.88431117 1421.42545806 -697.17131852 1420.19453926 -686.9375 1420.28125 C-685.18345327 1420.29922041 -683.42940977 1420.317507 -681.67536926 1420.33607483 C-676.81293457 1420.38612208 -671.95046101 1420.42998846 -667.08795547 1420.47252274 C-663.9881781 1420.50010519 -660.88842185 1420.52942098 -657.78866577 1420.55929565 C-585.52770954 1421.25362643 -513.2630263 1421.59438838 -441 1422 C-441.26192299 1423.90805326 -441.53978172 1425.81392285 -441.82421875 1427.71875 C-441.97721436 1428.78029297 -442.13020996 1429.84183594 -442.2878418 1430.93554688 C-443.98908377 1438.25607797 -449.56222059 1443.2176619 -455.73828125 1447.08984375 C-461.54701143 1450.36089221 -467.57326602 1451.91046302 -474.203125 1450.546875 C-480.05438487 1448.2689036 -482.14615667 1443.93566237 -484.7734375 1438.4609375 C-486.02661192 1435.94660665 -486.94435376 1434.40601779 -489.625 1433.375 C-498.09264732 1432.03800305 -505.76138516 1434.05605717 -514 1436 C-515.72307834 1442.6071142 -513.78737563 1448.5386472 -510.70703125 1454.50390625 C-504.99613414 1463.55253947 -497.74305283 1468.95991422 -487.390625 1471.6875 C-467.85322679 1475.57339136 -445.20525598 1473.71006485 -428.03125 1463.1796875 C-418.44028082 1456.60523282 -413.64473989 1449.15104481 -409.3125 1438.5 C-408.93544922 1437.60152344 -408.55839844 1436.70304687 -408.16992188 1435.77734375 C-405.99389823 1430.55944413 -403.97379995 1425.29718868 -402 1420 C-401.12240524 1420.03758423 -400.24481049 1420.07516846 -399.34062195 1420.1138916 C-391.02952281 1420.46940928 -382.7183313 1420.82266833 -374.40703106 1421.17345428 C-370.13515164 1421.35383091 -365.86331158 1421.53504998 -361.59155273 1421.71826172 C-357.46137127 1421.89536917 -353.33109799 1422.07017566 -349.20075417 1422.24345398 C-347.63284714 1422.30962376 -346.0649736 1422.37659256 -344.49713707 1422.44441223 C-331.74641272 1423.17147968 -331.74641272 1423.17147968 -319 1423 C-317.06535305 1421.06535305 -317.71473932 1418.11205767 -317.55810547 1415.51707458 C-316.71357761 1402.77265656 -313.45176242 1391.83535462 -309 1379.9375 C-308.3183555 1378.06313626 -307.63893776 1376.18796133 -306.96166992 1374.31201172 C-305.61802478 1370.59899314 -304.26208977 1366.89084975 -302.89599609 1363.18603516 C-301.18521635 1358.53136237 -299.53999968 1353.85687411 -297.92578125 1349.16796875 C-297.47352143 1347.86263737 -297.0210557 1346.55737732 -296.56835938 1345.25219727 C-295.75626377 1342.90668708 -294.94866143 1340.55961424 -294.14648438 1338.21069336 C-290.17041839 1326.92834034 -290.17041839 1326.92834034 -284.81640625 1323.671875 C-283.70072266 1323.21554687 -283.70072266 1323.21554687 -282.5625 1322.75 C-281.82128906 1322.43546875 -281.08007812 1322.1209375 -280.31640625 1321.796875 C-275.01385483 1319.97272578 -269.98883802 1319.8172651 -264.4375 1319.8125 C-263.68275391 1319.80025391 -262.92800781 1319.78800781 -262.15039062 1319.77539062 C-258.28766107 1319.76518077 -255.26871916 1319.80640332 -252 1322 C-251.73787486 1327.43378322 -252.58896735 1331.89360514 -254.3125 1337.0625 C-254.57901367 1337.8779126 -254.84552734 1338.6933252 -255.12011719 1339.53344727 C-256.05959035 1342.36302624 -257.0252398 1345.1823843 -258 1348 C-258.35433105 1349.02448242 -258.70866211 1350.04896484 -259.07373047 1351.10449219 C-266.71841947 1372.96234924 -275.54584012 1394.33799477 -284.42330933 1415.71783447 C-284.74848541 1416.50277283 -285.0736615 1417.28771118 -285.40869141 1418.09643555 C-285.69306061 1418.78094284 -285.97742981 1419.46545013 -286.27041626 1420.17070007 C-286.90385525 1421.75893435 -287.45928445 1423.37785335 -288 1425 C-259.07379852 1424.7669756 -230.14763435 1424.52972641 -201.22151508 1424.28670079 C-197.79497516 1424.25791605 -194.36843494 1424.22916678 -190.94189453 1424.20043945 C-190.25982396 1424.19472053 -189.5777534 1424.18900161 -188.87501402 1424.1831094 C-177.87739981 1424.0909826 -166.87976418 1424.00171923 -155.88211767 1423.91354198 C-144.57056096 1423.82278305 -133.25903463 1423.72882189 -121.94752657 1423.63215441 C-115.60540694 1423.57805401 -109.26328302 1423.52534571 -102.9211235 1423.4761219 C-96.93428218 1423.42960977 -90.94748593 1423.379174 -84.96070099 1423.32591057 C-82.78010083 1423.30716872 -80.59948849 1423.28978018 -78.4188652 1423.2739563 C-64.25728911 1423.17016732 -50.14289948 1422.73975618 -36 1422 C-35.56324951 1422.93948486 -35.56324951 1422.93948486 -35.11767578 1423.89794922 C-32.4847817 1428.84972249 -26.46878494 1431.43310055 -21.4375 1433.375 C-5.69698156 1436.4164946 10.38654315 1433.25397521 24 1425 C47.09771607 1409.1098441 56.45701194 1382.8620357 65.1875 1357.4375 C65.43980377 1356.70349976 65.69210754 1355.96949951 65.95205688 1355.21325684 C68.75079892 1347.0348996 71.40769444 1338.82341622 73.86328125 1330.53515625 C74.07937546 1329.80848251 74.29546967 1329.08180878 74.51811218 1328.33311462 C75.61974769 1324.7265653 75.61974769 1324.7265653 76 1321 C77.001521 1321.03029297 78.00304199 1321.06058594 79.03491211 1321.09179688 C82.83887543 1321.20616978 86.642932 1321.31715629 90.44702148 1321.42724609 C92.07693049 1321.47486034 93.70681481 1321.52332918 95.33666992 1321.57275391 C106.56154999 1321.91237671 117.77002478 1322.064752 129 1322 C128.67837891 1322.5669458 128.35675781 1323.1338916 128.02539062 1323.71801758 C106.07545059 1362.28806361 106.07545059 1362.28806361 104.13671875 1405.55859375 C108.04272799 1416.60499998 113.4312454 1425.5187383 124 1431 C139.20031117 1436.48275019 154.03083754 1433.94237333 168.37036133 1427.21337891 C195.05470023 1413.9704839 208.71831593 1387.62849638 218.16186523 1360.38867188 C223.00383375 1346.53496557 223.00383375 1346.53496557 223.75 1332.0625 C223.66234375 1331.16660156 223.5746875 1330.27070312 223.484375 1329.34765625 C223.10018538 1326.74388937 223.10018538 1326.74388937 221 1324 C221.93841232 1323.9845388 221.93841232 1323.9845388 222.89578247 1323.96876526 C229.41727602 1323.86043984 235.93863865 1323.74586365 242.45996094 1323.62768555 C244.89255021 1323.58442007 247.32516822 1323.54273917 249.7578125 1323.50268555 C253.25790049 1323.44477968 256.75784501 1323.38114377 260.2578125 1323.31640625 C261.34240753 1323.29969376 262.42700256 1323.28298126 263.54446411 1323.26576233 C268.45749673 1323.16974917 273.17197006 1323.02313455 278 1322 C277.7412207 1322.59683594 277.48244141 1323.19367188 277.21582031 1323.80859375 C270.29235345 1339.80685366 263.51093785 1355.86372338 256.7911377 1371.94848633 C255.89226031 1374.09933965 254.99228512 1376.24973451 254.09118652 1378.3996582 C252.80615907 1381.46688293 251.52554477 1384.53591439 250.24609375 1387.60546875 C249.86212936 1388.52023483 249.47816498 1389.43500092 249.08256531 1390.37748718 C242.99198919 1403.92667321 242.99198919 1403.92667321 244.125 1418.25 C247.8496603 1423.71283511 252.37331204 1425.3021735 258.55133057 1426.59851074 C262.41559023 1427.23210331 266.20863914 1427.28531447 270.1171875 1427.265625 C270.96472092 1427.26830887 271.81225433 1427.27099274 272.68547058 1427.27375793 C275.41547237 1427.27766788 278.14504195 1427.26511804 280.875 1427.25 C281.80375946 1427.2478952 282.73251892 1427.24579041 283.68942261 1427.24362183 C308.79460878 1429.02676662 308.79460878 1429.02676662 331 1424 C331.08685603 1422.43827255 331.10702219 1420.87270656 331.09765625 1419.30859375 C331.09443359 1418.36435547 331.09121094 1417.42011719 331.08789062 1416.44726562 C331.07951172 1415.45404297 331.07113281 1414.46082031 331.0625 1413.4375 C331.05798828 1412.44041016 331.05347656 1411.44332031 331.04882812 1410.41601562 C331.03700007 1407.94395151 331.02051849 1405.47200482 331 1403 C313.98234737 1402.81788481 297.00346575 1403.38264744 280 1404 C280.48218994 1402.74280151 280.48218994 1402.74280151 280.97412109 1401.46020508 C286.11193055 1387.96001024 290.85027217 1374.31925649 295.625 1360.6875 C296.89824482 1357.05618835 298.17198876 1353.42505294 299.44638062 1349.79414368 C300.23295909 1347.55269763 301.01883654 1345.3110054 301.80386353 1343.0690155 C302.16458954 1342.0403688 302.52531555 1341.01172211 302.89697266 1339.9519043 C303.24318665 1338.9638681 303.58940063 1337.97583191 303.94610596 1336.95785522 C305.34123458 1333.04229226 306.80227048 1329.1520133 308.2774353 1325.26594543 C309.15190382 1322.92002706 309.15190382 1322.92002706 309 1320 C321.21 1320 333.42 1320 346 1320 C346.020625 1316.9475 346.04125 1313.895 346.0625 1310.75 C346.07615601 1309.31672363 346.07615601 1309.31672363 346.09008789 1307.85449219 C346.09258545 1307.09297852 346.09508301 1306.33146484 346.09765625 1305.546875 C346.10551147 1304.38430176 346.10551147 1304.38430176 346.11352539 1303.19824219 C346.00036998 1301.00716402 345.60552448 1299.10362139 345 1297 C341.08334892 1296.97095136 337.1667256 1296.95318483 333.25 1296.9375 C332.13882812 1296.92912109 331.02765625 1296.92074219 329.8828125 1296.91210938 C328.27792969 1296.90727539 328.27792969 1296.90727539 326.640625 1296.90234375 C325.16384277 1296.89448853 325.16384277 1296.89448853 323.65722656 1296.88647461 C321.25751666 1296.98899805 319.30380543 1297.38080485 317 1298 C317.3132019 1297.16506012 317.62640381 1296.33012024 317.94909668 1295.46987915 C320.89559001 1287.61329857 323.83895568 1279.75555511 326.77878571 1271.89647865 C328.29040546 1267.85578901 329.80324438 1263.81556454 331.31884766 1259.77636719 C332.78057203 1255.88062611 334.23912235 1251.98371058 335.69544983 1248.08594894 C336.25251127 1246.59672871 336.8107284 1245.10794026 337.37010193 1243.61958694 C338.15146216 1241.53999213 338.92875381 1239.45892041 339.70507812 1237.37744141 C340.14920044 1236.19163483 340.59332275 1235.00582825 341.05090332 1233.78408813 C342.10755551 1231.17473185 342.10755551 1231.17473185 342 1229 C333.09 1229 324.18 1229 315 1229 C311.15457804 1238.17347957 311.15457804 1238.17347957 307.50463867 1247.41113281 C306.86600891 1249.08393311 306.86600891 1249.08393311 306.21447754 1250.79052734 C305.57270569 1252.47976318 305.57270569 1252.47976318 304.91796875 1254.203125 C304.51018188 1255.27224121 304.10239502 1256.34135742 303.68225098 1257.44287109 C302.50356086 1260.53436609 301.32677852 1263.62658124 300.1505394 1266.7190094 C298.01365083 1272.33502563 295.87431803 1277.95011161 293.7355957 1283.56542969 C292.83274105 1285.93609339 291.92989319 1288.30675968 291.02705383 1290.6774292 C290.35136922 1292.45161947 289.67568461 1294.22580973 289 1296 C253.17622905 1296.71517041 217.3524886 1297.15909933 181.5234375 1297.5 C179.35910277 1297.52072951 177.19476815 1297.54147133 175.03043365 1297.56222534 C154.89907985 1297.75493116 134.76767519 1297.94205163 114.63623047 1298.125 C104.58028313 1298.21642033 94.52436867 1298.31087687 84.46847975 1298.40851593 C78.18179658 1298.46937689 71.8950951 1298.52655802 65.60835147 1298.58079529 C61.70920905 1298.61531674 57.81010681 1298.65337631 53.91100693 1298.69238281 C52.12494742 1298.70956031 50.33887372 1298.72533696 48.55278778 1298.73950195 C39.95580107 1298.80842087 31.36940568 1298.95383016 22.78237915 1299.39257812 C21.46672785 1299.45964966 20.15107655 1299.52672119 18.79555702 1299.5958252 C2.66841531 1301.31314476 -12.80668044 1310.49695821 -23 1323 C-38.09410338 1343.36946727 -46.37587955 1370.75573504 -46.07421875 1396.0390625 C-46.06886108 1396.90635986 -46.06350342 1397.77365723 -46.0579834 1398.66723633 C-46.04416247 1400.77820079 -46.02287172 1402.8891142 -46 1405 C-52.03229582 1405.0494981 -58.06447296 1405.08576625 -64.09692383 1405.10986328 C-66.14837707 1405.11991069 -68.19981604 1405.13355092 -70.2512207 1405.15087891 C-73.20267262 1405.17518246 -76.1539349 1405.18649582 -79.10546875 1405.1953125 C-80.02023483 1405.20563507 -80.93500092 1405.21595764 -81.87748718 1405.22659302 C-90.03372747 1405.22802483 -90.03372747 1405.22802483 -94 1403 C-96.93326145 1399.56100382 -97.30059343 1396.70023515 -97.22506714 1392.2472229 C-96.82145538 1388.21728946 -95.42227295 1384.59533089 -94.00390625 1380.82421875 C-93.53108971 1379.52311409 -93.53108971 1379.52311409 -93.04872131 1378.19572449 C-92.0478023 1375.45785829 -91.02678813 1372.72825987 -90 1370 C-89.68230652 1369.15004456 -89.36461304 1368.30008911 -89.03729248 1367.42437744 C-86.70851754 1361.20576416 -84.32696849 1355.00799268 -81.9375 1348.8125 C-81.1607612 1346.79223523 -80.38423758 1344.77188772 -79.60791016 1342.75146484 C-77.51663197 1337.31173852 -75.42115451 1331.8736394 -73.32452393 1326.43597412 C-71.97444909 1322.93371788 -70.62550173 1319.43102923 -69.27685547 1315.92822266 C-52.95470642 1273.53824957 -52.95470642 1273.53824957 -45.046875 1253.3046875 C-44.66552399 1252.32887726 -44.28417297 1251.35306702 -43.89126587 1250.34768677 C-42.120679 1245.81922327 -40.34728645 1241.29188251 -38.56982422 1236.76611328 C-38.25644104 1235.9664212 -37.94305786 1235.16672913 -37.62017822 1234.34280396 C-37.04083114 1232.86444205 -36.46014358 1231.38660449 -35.87786865 1229.90939331 C-34.5637158 1227.03791464 -34.5637158 1227.03791464 -34 1224 C-45.22 1224 -56.44 1224 -68 1224 C-71.33137216 1232.29514146 -71.33137216 1232.29514146 -74.19824219 1240.68725586 C-74.57833435 1241.89808334 -74.95842651 1243.10891083 -75.35003662 1244.35643005 C-75.74919593 1245.64250181 -76.14813705 1246.9286413 -76.546875 1248.21484375 C-76.96691456 1249.56107077 -77.38718659 1250.90722527 -77.80767822 1252.25331116 C-78.68089532 1255.05193319 -79.55121198 1257.85143567 -80.41943359 1260.65161133 C-81.53233999 1264.24004537 -82.65278163 1267.82607567 -83.77537155 1271.41149044 C-84.64143925 1274.18058488 -85.50347661 1276.95092109 -86.36429596 1279.72165108 C-86.77609281 1281.0453379 -87.1891641 1282.36862896 -87.60353851 1283.69151115 C-88.17958142 1285.53256165 -88.74960314 1287.37549286 -89.31933594 1289.21850586 C-89.64480408 1290.26534042 -89.97027222 1291.31217499 -90.30560303 1292.39073181 C-91.12858791 1295.03316788 -91.12858791 1295.03316788 -91 1298 C-92.23451904 1297.98428955 -93.46903809 1297.9685791 -94.7409668 1297.95239258 C-99.37973343 1297.89754369 -104.01847221 1297.86345261 -108.6574707 1297.83520508 C-110.65426475 1297.8202424 -112.65102664 1297.79986489 -114.64770508 1297.77368164 C-131.38116264 1297.55995604 -146.06403691 1297.51000986 -158.9375 1309.5 C-181.58265867 1333.20665048 -195 1370.45361084 -195 1403 C-196.64814697 1402.99214478 -196.64814697 1402.99214478 -198.32958984 1402.98413086 C-202.4483965 1402.96588237 -206.56719966 1402.9544962 -210.68603516 1402.94506836 C-212.46078088 1402.94007316 -214.23552255 1402.93327472 -216.01025391 1402.92456055 C-218.57715866 1402.91228216 -221.1440085 1402.90672343 -223.7109375 1402.90234375 C-224.88032364 1402.89460182 -224.88032364 1402.89460182 -226.07333374 1402.88670349 C-231.76606591 1402.88613776 -237.34649613 1403.34586831 -243 1404 C-242.49605713 1402.29602051 -242.49605713 1402.29602051 -241.98193359 1400.55761719 C-237.52690107 1385.31946839 -233.57542937 1369.96241586 -229.71142578 1354.56640625 C-228.79982997 1350.93670229 -227.87507391 1347.31047942 -226.94754982 1343.68481827 C-226.22490917 1340.85028918 -225.5118243 1338.01341786 -224.80128098 1335.17583466 C-224.46434149 1333.83706511 -224.12392394 1332.4991653 -223.77974319 1331.16223907 C-220.21883683 1317.40086621 -220.21883683 1317.40086621 -222.96484375 1303.72265625 C-225.50234614 1299.49986926 -229.30438886 1298.21666577 -233.8125 1296.8125 C-242.97675635 1294.8553042 -252.10766555 1294.84615971 -261.4375 1294.875 C-263.3546582 1294.86919922 -263.3546582 1294.86919922 -265.31054688 1294.86328125 C-267.13489258 1294.86521484 -267.13489258 1294.86521484 -268.99609375 1294.8671875 C-270.65402954 1294.86887939 -270.65402954 1294.86887939 -272.34545898 1294.87060547 C-274.97605059 1294.82005177 -274.97605059 1294.82005177 -277 1296 C-276.75271149 1295.43614594 -276.50542297 1294.87229187 -276.25064087 1294.29135132 C-269.92752047 1279.85556866 -263.75174591 1265.36385879 -257.70068359 1250.81201172 C-256.34352136 1247.54932372 -254.98244001 1244.28828791 -253.62109375 1241.02734375 C-252.75497988 1238.94801181 -251.88908543 1236.86858846 -251.0234375 1234.7890625 C-250.41427994 1233.3301207 -250.41427994 1233.3301207 -249.79281616 1231.84170532 C-249.42467804 1230.95502167 -249.05653992 1230.06833801 -248.67724609 1229.15478516 C-248.35211029 1228.37366364 -248.02697449 1227.59254211 -247.69198608 1226.78775024 C-246.93983781 1225.16407092 -246.93983781 1225.16407092 -247 1224 C-267.13 1224 -287.26 1224 -308 1224 C-312.23344067 1234.03257312 -312.23344067 1234.03257312 -315 1245 C-306.42 1245.99 -297.84 1246.98 -289 1248 C-289 1252.56015036 -290.36227242 1255.68783759 -292.15625 1259.76953125 C-292.65642387 1260.93230843 -292.65642387 1260.93230843 -293.16670227 1262.11857605 C-293.89089803 1263.80080544 -294.61822438 1265.48168977 -295.34829712 1267.16137695 C-297.32493214 1271.71142431 -299.27658928 1276.27217697 -301.23046875 1280.83203125 C-301.63271164 1281.76935089 -302.03495453 1282.70667053 -302.4493866 1283.6723938 C-306.33440369 1292.74224238 -310.08800828 1301.86331164 -313.8125 1311 C-319.97972526 1326.10934996 -326.21948289 1341.18738286 -332.5 1356.25 C-332.91738434 1357.25144043 -333.33476868 1358.25288086 -333.76480103 1359.28466797 C-334.97806072 1362.19521952 -336.19197761 1365.10549581 -337.40625 1368.015625 C-337.92429451 1369.25762665 -337.92429451 1369.25762665 -338.45280457 1370.52471924 C-342.28117611 1379.69194168 -346.14479036 1388.84387711 -350 1398 C-365.18 1398.33 -380.36 1398.66 -396 1399 C-394.4840625 1394.31941406 -392.968125 1389.63882812 -391.40625 1384.81640625 C-390.44905794 1381.85877578 -389.49195177 1378.90111808 -388.53515625 1375.94335938 C-387.01500306 1371.24411136 -385.49452531 1366.54497004 -383.97216797 1361.84643555 C-382.74544648 1358.06027063 -381.5201364 1354.27365168 -380.29582214 1350.48670769 C-379.82743539 1349.03879317 -379.358532 1347.59104568 -378.88911438 1346.14346504 C-378.23397065 1344.12285133 -377.58063238 1342.10166253 -376.92773438 1340.08032227 C-376.55467163 1338.92782486 -376.18160889 1337.77532745 -375.79724121 1336.58790588 C-374.95093158 1334.29204076 -374.95093158 1334.29204076 -375 1333 C-384.24 1333 -393.48 1333 -403 1333 C-406.32025852 1340.43662442 -406.32025852 1340.43662442 -409.19824219 1347.97875977 C-409.57833435 1349.05920059 -409.95842651 1350.13964142 -410.35003662 1351.25282288 C-410.74499329 1352.38755539 -411.13994995 1353.5222879 -411.546875 1354.69140625 C-411.96294006 1355.87725815 -412.37900513 1357.06311005 -412.80767822 1358.28489685 C-413.9019169 1361.40577744 -414.9929323 1364.52775894 -416.08233643 1367.65032959 C-417.19928093 1370.84922843 -418.32049511 1374.04663002 -419.44140625 1377.24414062 C-421.63217449 1383.49451175 -423.81590298 1389.74727866 -426 1396 C-442.335 1396.495 -442.335 1396.495 -459 1397 C-456.44172201 1389.71200241 -453.88266778 1382.4242859 -451.32177734 1375.13720703 C-450.4544839 1372.66860858 -449.58760784 1370.19986343 -448.72119141 1367.73095703 C-447.46111546 1364.14054364 -446.19966481 1360.55061708 -444.9375 1356.9609375 C-444.5240332 1355.78408386 -444.11056641 1354.60723022 -443.68457031 1353.39471436 C-441.6868651 1347.72457805 -439.66674533 1342.06450478 -437.58984375 1336.42285156 C-437.02825562 1334.89635483 -437.02825562 1334.89635483 -436.45532227 1333.33901978 C-435.75333034 1331.43838654 -435.04702553 1329.53933872 -434.33569336 1327.6421814 C-434.02639893 1326.80587189 -433.71710449 1325.96956238 -433.3984375 1325.10791016 C-433.12692871 1324.38254059 -432.85541992 1323.65717102 -432.57568359 1322.90982056 C-431.85569666 1320.85372605 -431.85569666 1320.85372605 -432 1318 C-431.44578369 1318.00523682 -430.89156738 1318.01047363 -430.32055664 1318.01586914 C-417.10089006 1318.1216479 -403.90061658 1317.95378612 -390.6875 1317.5625 C-389.98771027 1317.54285187 -389.28792053 1317.52320374 -388.56692505 1317.50296021 C-380.34832055 1317.26846673 -372.17854009 1316.87738715 -364 1316 C-363.03794912 1309.62641289 -362.89344422 1303.44070471 -363 1297 C-366.9102044 1295.69659853 -370.61940555 1295.86903731 -374.6940918 1295.88647461 C-375.5821048 1295.88632858 -376.4701178 1295.88618256 -377.38504028 1295.8860321 C-380.32312454 1295.88672932 -383.26114556 1295.89451282 -386.19921875 1295.90234375 C-388.23517319 1295.90420861 -390.27112808 1295.90563219 -392.30708313 1295.90663147 C-397.66811357 1295.91045131 -403.02911697 1295.92027708 -408.39013672 1295.93133545 C-413.8596968 1295.94156101 -419.32926124 1295.94613155 -424.79882812 1295.95117188 C-435.53256397 1295.96189979 -446.26627974 1295.97896985 -457 1296 C-470.62990426 1326.08006233 -470.62990426 1326.08006233 -483.93847656 1356.30273438 C-484.66900049 1357.98690453 -485.40568861 1359.66840996 -486.14746094 1361.34765625 C-491.87982796 1374.33134663 -495.57311274 1385.60850243 -495 1400 C-495.73669922 1399.99476318 -496.47339844 1399.98952637 -497.23242188 1399.98413086 C-517.32634567 1399.8643798 -537.40904663 1400.08472401 -557.5 1400.4375 C-558.66813232 1400.45714813 -559.83626465 1400.47679626 -561.03979492 1400.49703979 C-577.70352586 1400.78112714 -594.34886527 1401.2924805 -611 1402 C-610.07225008 1399.09305024 -609.14449201 1396.18610309 -608.2166748 1393.2791748 C-607.5089865 1391.06156081 -606.80173147 1388.84380853 -606.09472656 1386.62597656 C-604.03451544 1380.17964556 -601.92044735 1373.75634837 -599.72558594 1367.35449219 C-598.90183213 1365.09207638 -598.90183213 1365.09207638 -599 1363 C-598.0315918 1363.16081055 -597.06318359 1363.32162109 -596.06542969 1363.48730469 C-591.69165467 1364.10868389 -587.36523846 1364.17981205 -582.953125 1364.203125 C-582.10127625 1364.20882507 -581.24942749 1364.21452515 -580.37176514 1364.22039795 C-578.57663191 1364.22979999 -576.7814818 1364.23636273 -574.98632812 1364.24023438 C-572.27182154 1364.24992212 -569.55807886 1364.28098384 -566.84375 1364.3125 C-554.75001928 1364.3866597 -542.72361879 1364.20630684 -533 1356 C-525.27399936 1347.96926151 -522.57074675 1337.64558029 -520.75 1326.9375 C-520.49089844 1325.5443457 -520.49089844 1325.5443457 -520.2265625 1324.12304688 C-518.67498052 1315.34922022 -517.66596716 1307.1171293 -522 1299 C-524.90361177 1295.46122316 -527.04731604 1294.21967243 -531.64111328 1293.70288086 C-564.85353949 1289.27841123 -564.85353949 1289.27841123 -595 1300 C-600.37943019 1305.31193224 -603.89535662 1310.95974048 -607.125 1317.75 C-607.81650146 1319.16696167 -607.81650146 1319.16696167 -608.52197266 1320.61254883 C-612.79564889 1329.42745197 -616.90723125 1338.3211411 -621 1347.22119141 C-623.80920722 1353.32369245 -626.6581885 1359.39873776 -629.609375 1365.43359375 C-629.90538605 1366.04045517 -630.20139709 1366.64731659 -630.50637817 1367.27256775 C-631.91966158 1370.16793818 -633.3407377 1373.05899734 -634.77490234 1375.9440918 C-640.41787566 1387.45528045 -640.41787566 1387.45528045 -642 1400 C-648.45992684 1399.9329507 -654.91925082 1399.8431247 -661.37866211 1399.73754883 C-663.57552927 1399.70431945 -665.7724814 1399.67628134 -667.96948242 1399.65356445 C-671.12976243 1399.61998246 -674.28926521 1399.56766366 -677.44921875 1399.51171875 C-678.42960617 1399.50532883 -679.40999359 1399.4989389 -680.42008972 1399.49235535 C-689.20249005 1399.303517 -689.20249005 1399.303517 -693 1396 C-697.11436391 1383.65690827 -689.40092712 1371.3518627 -684.25 1360.4375 C-683.41214966 1358.64892578 -683.41214966 1358.64892578 -682.55737305 1356.82421875 C-681.34941327 1354.24593935 -680.13839841 1351.66912384 -678.92529297 1349.09326172 C-677.26738669 1345.57155149 -675.61789245 1342.04596554 -673.97052002 1338.51931763 C-654.09489065 1295.97373 -654.09489065 1295.97373 -645.6875 1282.0625 C-637.70524786 1268.84600926 -630.91561608 1252.96549409 -634.65234375 1237.2578125 C-637.09005306 1230.3736377 -640.82339255 1225.23922316 -647.32421875 1221.75390625 C-649.85393335 1220.66974285 -652.366197 1219.79654529 -655 1219 C-655.72445313 1218.77441406 -656.44890625 1218.54882812 -657.1953125 1218.31640625 C-675.55939993 1213.67739462 -694.98212316 1217.81836117 -712 1225 C-713.66556896 1225.66940442 -715.33186249 1226.33702227 -717 1227 C-717.33 1226.01 -717.66 1225.02 -718 1224 C-731.80004317 1215.16797237 -754.69195783 1213.43132104 -770 1219 Z M-939 1493 C-937.25351996 1496.49296008 -936.07955884 1498.16924181 -933.41162109 1500.83129883 C-932.30939713 1501.93813774 -932.30939713 1501.93813774 -931.18490601 1503.06733704 C-930.3891214 1503.85593613 -929.59333679 1504.64453522 -928.7734375 1505.45703125 C-927.95179108 1506.27821945 -927.13014465 1507.09940765 -926.28359985 1507.94548035 C-924.54250483 1509.68355424 -922.79898001 1511.41919699 -921.05322266 1513.15258789 C-918.40086111 1515.7868157 -915.75646643 1518.42883374 -913.11328125 1521.07226562 C-911.41713538 1522.76349104 -909.72053502 1524.45426079 -908.0234375 1526.14453125 C-907.23979828 1526.92705765 -906.45615906 1527.70958405 -905.64877319 1528.51582336 C-901.47687108 1532.65241289 -897.23054902 1536.64156959 -892.77037048 1540.46650696 C-889.82801474 1543.01517239 -887.0187071 1545.70439689 -884.1875 1548.375 C-879.22026907 1553.02315533 -874.14423967 1557.44478536 -868.83203125 1561.69921875 C-865.55798614 1564.35909816 -862.37488913 1567.11256685 -859.1875 1569.875 C-852.92036413 1575.28155611 -846.48539546 1580.43114998 -839.93945312 1585.49462891 C-837.82265748 1587.1376503 -835.71561113 1588.79268508 -833.609375 1590.44921875 C-825.19855281 1597.05195632 -816.72175349 1603.50450936 -807.95654297 1609.62939453 C-805.72687556 1611.19133024 -803.50609032 1612.76551636 -801.28515625 1614.33984375 C-790.68937175 1621.8311178 -779.97942988 1629.08329494 -769 1636 C-768.21077148 1636.49822266 -767.42154297 1636.99644531 -766.60839844 1637.50976562 C-745.76067189 1650.63459856 -724.4861818 1662.94894172 -702.74560547 1674.53320312 C-700.24224807 1675.87058275 -697.74703042 1677.22179774 -695.25390625 1678.578125 C-614.91000945 1721.98708717 -524.74859638 1749.96947254 -355.875 1774.75 C-355.13327545 1774.80925659 -354.3915509 1774.86851318 -353.62734985 1774.92956543 C-331.41244242 1776.67166729 -309.21611834 1777.20727408 -286.9375 1777.1875 C-285.03522141 1777.18659363 -285.03522141 1777.18659363 -283.09451294 1777.18566895 C-261.67032852 1777.15811264 -240.35881607 1776.6987657 -219 1775 C-217.80129272 1774.90525391 -217.80129272 1774.90525391 -216.57836914 1774.80859375 C-144.28906125 1769.01693197 -72.84944424 1754.86099967 -4 1732 C-3.27780273 1731.76063721 -2.55560547 1731.52127441 -1.81152344 1731.2746582 C52.01894997 1713.37354373 105.06331553 1690.38108733 154.06201172 1661.71044922 C157.25961648 1659.84885549 160.47470696 1658.01979293 163.69140625 1656.19140625 C182.71170541 1645.32341636 200.9156584 1633.35150813 219 1621 C219.6871106 1620.5313855 220.37422119 1620.062771 221.08215332 1619.57995605 C229.01405031 1614.16649928 236.91367861 1608.72571456 244.625 1603 C245.81863159 1602.11646851 245.81863159 1602.11646851 247.03637695 1601.21508789 C254.13101129 1595.94207777 261.11016695 1590.53735616 268 1585 C268.6403418 1584.4858252 269.28068359 1583.97165039 269.94042969 1583.44189453 C278.52399113 1576.53646291 287.01561603 1569.53112798 295.38916016 1562.37255859 C297.03894684 1560.96681432 298.69654745 1559.57072891 300.35546875 1558.17578125 C308.82444052 1551.02602396 316.93083107 1543.53985683 324.97216797 1535.91455078 C326.96267893 1534.0352362 328.96506504 1532.16963823 330.97265625 1530.30859375 C338.12012299 1523.67587132 345.15484675 1516.94524312 352.0625 1510.0625 C352.7527124 1509.37687988 353.4429248 1508.69125977 354.15405273 1507.98486328 C362.1394153 1501.18335123 362.1394153 1501.18335123 367 1493 C-63.98 1493 -494.96 1493 -939 1493 Z " fill="#EC3136" transform="translate(1492,84)"/>
<path d="M0 0 C0.71004181 0.00215515 1.42008362 0.0043103 2.15164185 0.00653076 C35.84692032 0.17086785 66.90108927 13.668589 91.3125 36.9375 C114.49289412 60.80606207 126.6036642 94.39324621 126.55957031 127.37915039 C126.02217647 157.62721456 114.59713563 187.78048094 94.3125 210.3125 C93.43980469 211.28445312 92.56710938 212.25640625 91.66796875 213.2578125 C69.07099552 237.01275654 36.80220079 250.07082839 4.34375 251.4375 C-30.3284888 252.12407899 -63.61524547 239.19679235 -88.6875 215.3125 C-111.50844743 193.00438284 -124.98733009 159.92257403 -125.71875 128.1640625 C-125.82062512 96.69738342 -115.26737402 66.2050298 -94.6875 42.3125 C-93.80384766 41.21228516 -93.80384766 41.21228516 -92.90234375 40.08984375 C-83.63369856 28.93204795 -71.4867602 20.89427611 -58.6875 14.3125 C-57.79659668 13.8486792 -57.79659668 13.8486792 -56.88769531 13.37548828 C-38.8461551 4.10266012 -20.2635774 -0.11035746 0 0 Z M-69.6875 48.3125 C-70.50605469 49.02535156 -71.32460937 49.73820312 -72.16796875 50.47265625 C-91.53796642 68.42608812 -102.52926596 95.06104215 -103.890625 121.21484375 C-104.42026338 148.40741675 -95.59389503 173.71286669 -77.6875 194.3125 C-76.91792969 195.281875 -76.14835937 196.25125 -75.35546875 197.25 C-72.64283634 200.50330867 -69.59067268 203.09903176 -66.25 205.6875 C-65.64019287 206.16082764 -65.03038574 206.63415527 -64.40209961 207.12182617 C-41.16031051 224.77317595 -13.3547216 232.27318763 15.640625 228.88671875 C42.26011677 224.49504146 67.07304527 210.7175926 83.41796875 189.0390625 C100.49637844 164.46023784 108.56488342 135.84218374 103.1875 105.9375 C97.13397013 78.24401524 81.39679727 53.7660698 57.60400391 38.19433594 C17.2519976 12.7683074 -34.03278772 16.22866938 -69.6875 48.3125 Z " fill="#EC3136" transform="translate(2042.6875,0.6875)"/>
<path d="M0 0 C80.83890086 0 80.83890086 0 93.9921875 10.9375 C101.58470367 18.73681622 104.85933969 28.30981631 105 39 C104.23869717 49.26349001 100.19621487 57.64023479 93 65 C86.90664882 69.92155288 80.41060596 72.6310358 73 75 C71.515 75.495 71.515 75.495 70 76 C70.556875 76.40089844 71.11375 76.80179687 71.6875 77.21484375 C83.39730538 85.93785756 90.47888487 96.96202352 98.18994141 109.14892578 C100.09485627 112.14941078 102.02013796 115.13609505 103.94921875 118.12109375 C105.23735144 120.12215624 106.52512063 122.12345278 107.8125 124.125 C108.42947754 125.07914795 109.04645508 126.0332959 109.68212891 127.01635742 C110.52976807 128.34244019 110.52976807 128.34244019 111.39453125 129.6953125 C112.15020386 130.8711792 112.15020386 130.8711792 112.92114258 132.07080078 C114 134 114 134 114 136 C104.76 136 95.52 136 86 136 C85.05640625 134.25976562 84.1128125 132.51953125 83.140625 130.7265625 C68.49316436 100.59007788 68.49316436 100.59007788 44 80 C36.74 79.34 29.48 78.68 22 78 C22 97.14 22 116.28 22 136 C14.74 136 7.48 136 0 136 C0 91.12 0 46.24 0 0 Z M22 19 C22 32.2 22 45.4 22 59 C30.8790625 59.061875 30.8790625 59.061875 39.9375 59.125 C41.78722412 59.14320801 43.63694824 59.16141602 45.54272461 59.18017578 C47.03759472 59.18602654 48.53246807 59.19112071 50.02734375 59.1953125 C50.78019653 59.20554443 51.53304932 59.21577637 52.30871582 59.22631836 C61.02977445 59.22912843 69.22011501 57.79818219 76 52 C79.64494881 47.680841 81.23725052 42.62930769 81 37 C79.98508391 30.83969534 76.82692991 27.23654393 72.0390625 23.40625 C62.72199943 16.98068926 48.73057512 18.87761796 37.9375 18.9375 C32.678125 18.958125 27.41875 18.97875 22 19 Z " fill="#EC3136" transform="translate(1988,60)"/>
<path d="M0 0 C3.73183186 1.65859194 5.89150322 3.52334941 8 7 C8.43359375 9.99609375 8.43359375 9.99609375 8.4375 13.4375 C8.45683594 14.54996094 8.47617188 15.66242188 8.49609375 16.80859375 C7.75976293 27.13560073 2.82641941 37.35462426 -0.9375 46.875 C-3.75627265 54.07311146 -6.50233025 61.24695576 -8.8125 68.625 C-12.80849266 80.96473791 -12.80849266 80.96473791 -17.84375 84.17578125 C-21.81905935 85.69532884 -25.82094054 85.54185536 -30 85 C-33.39457386 83.16127249 -34.59947298 81.80105404 -36.3125 78.375 C-39.49665456 62.74369578 -32.98113437 45.80849147 -27.90087891 31.12792969 C-27.11508061 28.84619693 -26.35597651 26.55661688 -25.59765625 24.265625 C-19.70898047 6.85069534 -19.70898047 6.85069534 -11.625 1.5 C-7.1549835 -0.349662 -4.79551378 -0.54142897 0 0 Z " fill="#EC3136" transform="translate(1674,1404)"/>
<path d="M0 0 C3.2477623 2.69100305 4.84704728 4.73237129 5.54296875 8.984375 C6.35646439 23.49537833 -0.97063812 38.14906122 -6.14453125 51.33129883 C-8.93199611 58.43964813 -11.47962977 65.54894694 -13.6796875 72.859375 C-15.25642775 76.96977372 -17.07601088 80.60359611 -20.75390625 83.1640625 C-24.74507385 84.42124243 -28.68913557 84.35381689 -32.8125 83.8125 C-36.97601383 81.47052347 -38.34246394 79.25456549 -39.8125 74.8125 C-40.6837358 67.72104581 -39.82826364 60.88757976 -38.1484375 53.984375 C-37.97254089 53.2526709 -37.79664429 52.5209668 -37.61541748 51.76708984 C-35.71396726 44.08365372 -33.36793403 36.56314252 -30.82324219 29.07080078 C-30.05562595 26.79209403 -29.32099451 24.50422992 -28.5859375 22.21484375 C-25.82249361 13.87898805 -23.01067313 6.39831021 -15.8125 0.8125 C-10.40586811 -1.67537811 -5.56490077 -2.34962477 0 0 Z " fill="#EB3136" transform="translate(1522.8125,1405.1875)"/>
<path d="M0 0 C3.81277435 1.80240242 5.5297923 2.87118488 7.16015625 6.78515625 C9.9258565 17.37199954 5.76433435 27.66850527 1.97705078 37.46582031 C0.49329298 41.3142476 -0.94280678 45.1803089 -2.38574219 49.04418945 C-3.16762983 51.13273787 -3.9534136 53.219832 -4.74316406 55.30541992 C-6.39230492 59.66291447 -8.03144913 64.01544732 -9.51171875 68.43359375 C-14.07517483 82.03758741 -14.07517483 82.03758741 -20 85 C-24.59698532 85.42308538 -28.70653278 85.53894467 -33 83.75 C-36.20903077 80.94209808 -36.91153938 78.82035582 -37.37109375 74.55859375 C-37.72636658 63.00227902 -35.51178028 52.95031957 -32 42 C-31.62987793 40.83629883 -31.25975586 39.67259766 -30.87841797 38.47363281 C-29.84454084 35.24551536 -28.78555761 32.02639857 -27.71014404 28.81188965 C-27.07830268 26.92226059 -26.45433163 25.03000566 -25.83056641 23.13769531 C-20.04681729 6.32931866 -20.04681729 6.32931866 -12.6875 1.4375 C-8.22663432 -0.30148154 -4.719791 -0.84098094 0 0 Z " fill="#EB3136" transform="translate(1373,1404)"/>
<path d="M0 0 C7.28044855 0.01888573 14.45465561 0.41349417 21.69921875 1.1328125 C19.8015124 7.94222939 17.50931143 14.5631092 15.07421875 21.1953125 C14.760896 22.05294189 14.44757324 22.91057129 14.12475586 23.79418945 C13.82706299 24.59816162 13.52937012 25.40213379 13.22265625 26.23046875 C12.95372559 26.95758057 12.68479492 27.68469238 12.40771484 28.43383789 C11.69921875 30.1328125 11.69921875 30.1328125 10.69921875 31.1328125 C8.01829254 31.06698619 5.37279949 30.93968683 2.69921875 30.7578125 C1.92843994 30.70890869 1.15766113 30.66000488 0.36352539 30.60961914 C-4.87902892 30.26431443 -10.08796533 29.7962618 -15.30078125 29.1328125 C-14.68331265 25.27973866 -13.52527948 22.1576155 -11.83203125 18.6484375 C-11.34347656 17.63136719 -10.85492187 16.61429688 -10.3515625 15.56640625 C-9.58392578 13.99052734 -9.58392578 13.99052734 -8.80078125 12.3828125 C-8.03314453 10.78373047 -8.03314453 10.78373047 -7.25 9.15234375 C-2.9123928 0.16811775 -2.9123928 0.16811775 0 0 Z " fill="#EA3136" transform="translate(923.30078125,1397.8671875)"/>
</svg>
